<svg t="1729325077150" class="icon" viewBox="0 0 1024 1024" version="1.1" xmlns="http://www.w3.org/2000/svg" p-id="4846" width="200" height="200"><path d="M533.7 912.8c-30.5 0-69.7-7-105.1-18.7-47.3-15.7-87.9-39.6-117.4-69.2-40.7-40.7-61.2-92-61.1-152.2 0.1-49.9 7-95.2 20.4-134.5 11.5-33.7 27.8-63.1 48.5-87.3 37.4-43.9 81.2-62 107.4-64.1l1.1-0.1 0.3 0.1h0.9c4.9 0 29.2-0.6 133.6-8 3.3-0.2 6.7-0.4 10-0.4 42.8 0 84.2 19.9 119.5 57.6 26.1 27.9 47.9 64 63 104.5 14.1 37.9 20.8 75.9 18.8 107.1 0.1 51.8-9.3 97.3-27.7 135.4-15.8 32.6-38.2 59.8-66.8 81.1-48.1 35.8-106.5 48.6-145.1 48.7h-0.3z" fill="#FF9640" p-id="4847"></path><path d="M572.3 385.2c122.1 0 200.6 167.1 194.5 262.2 0.3 218.7-167.5 258.5-232.8 258.6h-0.2c-76.2 0-277.2-48-276.8-233.3 0.4-211.4 122.3-275.3 170-279.2h1.7c6 0 31.3-0.7 134.1-8 3.1-0.2 6.3-0.3 9.5-0.3m0-13.6c-3.5 0-7 0.1-10.5 0.4-104.2 7.4-128.2 7.9-133.1 7.9h-0.6l-0.8-0.1-1.4 0.1c-27.5 2.2-73.3 21-112 66.5-21.2 24.9-38 55.1-49.7 89.6-13.7 40-20.7 86-20.8 136.6-0.1 62.2 21.1 115 63.1 157 30.2 30.3 71.8 54.8 120.1 70.8 36 12 76.1 19.1 107.2 19.1h0.3c12.1 0 36.9-1.4 67.7-10.2 30.2-8.7 57.6-22.1 81.4-39.8 29.4-21.9 52.6-50 68.8-83.6 18.9-39 28.4-85.4 28.4-138.2 2-32-4.8-71-19.2-109.6-15.4-41.3-37.6-78.3-64.4-106.8-36.7-39-79.8-59.7-124.5-59.7z" fill="" p-id="4848"></path><path d="M532.2 891c-28 0-64.2-6.5-96.8-17.3-43.6-14.5-80.9-36.4-108-63.6-37.2-37.3-56-84.2-55.9-139.4 0.1-46.1 6.4-87.8 18.8-124 10.6-30.9 25.6-57.9 44.5-80.2 34.1-40.1 74-56.6 97.8-58.6h2c5.9 0 29.9-0.7 124.4-7.4 3-0.2 6.1-0.3 9.1-0.3 39 0 76.7 18.2 109 52.6 24 25.6 44 58.9 57.9 96.2 13 34.9 19.1 69.8 17.3 98.4 0.1 47.7-8.5 89.6-25.5 124.7-14.4 29.8-35 54.8-61.2 74.3-44.1 32.8-97.7 44.6-133.1 44.7h-0.3v-0.1z" fill="#FFC239" p-id="4849"></path><path d="M568 403.5c113.5 0 186.5 155.3 180.8 243.7 0.3 203.3-155.6 240.3-216.4 240.3h-0.2c-70.8 0-257.6-44.6-257.3-216.9 0.4-196.5 113.7-255.8 158-259.5h1.6c5.5 0 29.1-0.7 124.6-7.4 3 0 6-0.2 8.9-0.2m0-6.8c-3.1 0-6.2 0.1-9.3 0.3-97 6.9-119.5 7.4-124.1 7.4h-0.9l-0.9-0.2-0.4 0.2c-24.4 2-65.3 18.8-100.1 59.8-19.2 22.6-34.4 50-45.2 81.3-12.5 36.6-18.9 78.7-19 125.1-0.1 56.2 19 103.9 56.9 141.8 27.5 27.5 65.3 49.8 109.3 64.4 32.9 10.9 69.5 17.4 97.8 17.4h0.2c10.9 0 33.4-1.2 61.4-9.3 27.4-7.9 52.3-20 73.8-36.1 26.6-19.8 47.5-45.2 62.2-75.6 17.2-35.5 25.9-77.9 25.8-126 1.8-29-4.4-64.4-17.5-99.7-14-37.7-34.3-71.4-58.6-97.3-32.9-34.9-71.4-53.5-111.4-53.5z" fill="" p-id="4850"></path><path d="M507.9 479.1c-5.6 0-12-0.2-19.5-0.6-39.9-2.2-39-49-38.5-79.9 0.1-3.5 0.1-6.8 0.1-9.8V386l2.8-0.5c2.2-0.4 55.4-10.6 87.4-10.6 13.1 0 20.7 1.7 24 5.4 1.4 1.6 2.1 3.6 1.9 5.7-0.5 4.6 0 12.5 0.5 21.7 1.6 28.6 3.7 64.3-15.4 66.3-6.4 0.7-10.9 1.6-15.2 2.4-7.1 1.3-13.9 2.7-28.1 2.7z" fill="#FFFFFF" p-id="4851"></path><path d="M540.2 378.2c13.6 0 23.1 1.9 22.5 7.3-1.8 18.1 9.7 82.7-11.8 85-17.4 1.8-20.7 5.2-43 5.2-5.2 0-11.6-0.2-19.3-0.6-40.8-2.3-35.1-56.7-35.1-86.3-0.1-0.1 54.7-10.6 86.7-10.6m0-6.8c-32.3 0-85.8 10.2-88 10.6l-5.5 1.1v5.6c0 3-0.1 6.3-0.1 9.7-0.3 15.5-0.6 34.8 4 50.9 2.7 9.3 6.8 16.7 12.3 22.1 6.6 6.3 15.1 9.9 25.4 10.4 7.6 0.4 14.1 0.6 19.7 0.6 14.5 0 21.5-1.4 28.8-2.8 4.2-0.8 8.6-1.7 14.9-2.4 4.2-0.4 10.1-2.6 14.1-10.5 2.3-4.4 3.8-10.3 4.5-17.8 1.3-12.8 0.5-28.1-0.3-41.5-0.5-8.7-1-16.9-0.5-21.2 0.3-3.1-0.7-6-2.8-8.3-4.1-4.5-12-6.5-26.5-6.5zM507.4 571.4c-22.4 0-58.7-11.2-108-33.3-37.3-16.7-68.5-33.8-68.8-34l3.3-6c1.2 0.7 123.9 67.6 174.8 66.5 24.3-0.5 66.2-10 106.7-24.3 40.9-14.4 70.6-30.4 75.6-40.7l6.1 3c-8.6 17.6-58.5 36.7-79.5 44.1-41.1 14.5-83.8 24.2-108.8 24.7h-1.4zM495 705.2c-57.9 0-150.4-35-196-74.6l4.5-5.1c45.3 39.2 137.8 74 194.1 72.9 50.3-1 134.4-2.6 235.1-67.5l3.7 5.7c-102.3 65.9-187.7 67.6-238.7 68.5-0.9 0.1-1.8 0.1-2.7 0.1z" fill="" p-id="4852"></path><path d="M532.3 882.7c-18.7-26.9-28.9-101.9-30.4-222.9-1.1-89.7 3.3-172.8 3.4-173.6l6.8 0.4c-0.2 3.3-17.2 330.5 25.8 392.3l-5.6 3.8z" fill="" p-id="4853"></path><path d="M369.6 501.1c8.9-28.6 21.7-32.8 43.1-25.4 21.5 7.3-14.4 32.2-19.3 47-5 14.7-15.4 72.5 1.3 82.7s-26.3 31.7-36.5 14.7 0-82.7 11.4-119z" fill="#FFFFFF" p-id="4854"></path><path d="M371.6 629.8c-7.4 0-13.2-2.8-16.3-8-11.7-19.5 1-89.6 11.1-121.8 4.7-15.2 10.8-24.3 18.9-28.4 7.4-3.7 16.2-3.5 28.5 0.8 4.8 1.6 7.7 4.3 8.7 7.9 2.1 7.8-5.7 17-14 26.7-5.1 6-10.4 12.2-11.9 16.7-2.4 6.9-6.2 24.6-7.3 42.2-1.3 19.7 1.3 33 7.2 36.5 5.6 3.4 5.7 7.8 5.3 10.1-1.5 8-13.4 14.8-24.1 16.7-2.1 0.4-4.2 0.6-6.1 0.6z m25.2-153.9c-3.2 0-6 0.6-8.5 1.9-6.4 3.2-11.3 11-15.5 24.3-5.8 18.6-11.1 43.9-13.7 66.1-2.9 24.9-2.2 43.2 1.9 50.1 3.4 5.7 11.9 4.8 15.4 4.2 9.6-1.7 17.9-7.4 18.6-11.2 0.1-0.4 0.3-1.6-2.1-3-19.7-12.1-7-74.3-2.7-86.7 1.9-5.7 7.4-12.1 13.2-18.9 6.2-7.2 13.8-16.2 12.6-20.5-0.4-1.3-1.8-2.4-4.4-3.3-5.9-2-10.7-3-14.8-3z" fill="" p-id="4855"></path><path d="M663.6 495.6c-8.9-28.6-21.7-32.8-43.1-25.4-21.5 7.3 14.4 32.2 19.3 47 5 14.7 15.4 72.5-1.3 82.7-16.8 10.2 26.3 31.7 36.5 14.7s0-82.7-11.4-119z" fill="#FFFFFF" p-id="4856"></path><path d="M661.6 624.3c-1.9 0-4-0.2-6.1-0.6-10.6-1.9-22.5-8.7-24-16.7-0.4-2.3-0.3-6.7 5.3-10.1 5.8-3.6 8.4-16.9 7.2-36.5-1.1-17.6-5-35.3-7.3-42.2-1.5-4.5-6.8-10.7-11.9-16.7-8.3-9.7-16.2-18.9-14-26.7 1-3.6 3.9-6.3 8.8-7.9 12.3-4.3 21.2-4.5 28.5-0.8 8.2 4.1 14.2 13.1 18.9 28.4 10.1 32.1 22.8 102.2 11.1 121.8-3.3 5.3-9.1 8-16.5 8z m-25.2-153.9c-4.1 0-8.9 1-14.8 3-2.6 0.9-4 2-4.4 3.3-1.2 4.3 6.5 13.3 12.6 20.5 5.8 6.8 11.3 13.2 13.2 19 4.2 12.4 17 74.6-2.8 86.7-2.5 1.5-2.3 2.6-2.2 3.1 0.7 3.8 9 9.5 18.5 11.2 3.5 0.6 12 1.5 15.4-4.2 4.1-6.9 4.9-25.2 1.9-50.1-2.6-22.2-7.8-47.5-13.7-66.1-4.2-13.4-9.1-21.1-15.5-24.3-2.2-1.5-5-2.1-8.2-2.1z" fill="" p-id="4857"></path><path d="M426.9 812.8c12.9 22.7 8.6 98.9-18.7 103.4s-24.9 30 4.5 29.2c43.5-1.1 87.1 13.6 84.9-27.2-4-73-6.7-122.4-6.7-122.4" fill="#FFFFFF" p-id="4858"></path><path d="M462.6 952.2c-6.5 0-13.4-0.4-20.7-0.8-9.5-0.6-19.3-1.1-29.1-0.9-18.6 0.5-27.9-8.4-28.8-17.5-0.8-8.8 6-19 23.3-21.8 6.1-1 10.3-7.5 12.9-12.8 9.4-19.8 12.3-65.3 2.2-83-1.4-2.4-0.5-5.6 1.9-7 2.5-1.4 5.6-0.5 7 1.9 10.9 19.3 9.9 67.7-1.9 92.5-5.2 10.9-12.1 17.1-20.4 18.5-10.2 1.7-15.2 6.7-14.8 10.8 0.4 4.4 6.8 8.6 18.3 8.3 10.2-0.3 20.2 0.3 29.9 0.9 20.3 1.2 37.8 2.2 45.4-5.4 3.6-3.5 5.1-9.2 4.6-17.3-4-73-6.7-122.4-6.7-122.4-0.2-2.8 2-5.2 4.8-5.4 2.8-0.1 5.2 2 5.4 4.8 0 0 2.7 49.4 6.7 122.4 0.6 11.2-1.9 19.4-7.6 25.1-7.3 7.3-18.7 9.1-32.4 9.1z" fill="" p-id="4859"></path><path d="M635 812.8c-12.9 22.7-8.6 98.9 18.7 103.4s24.9 30-4.5 29.2c-43.5-1.1-87.1 13.6-84.9-27.2 4-73 6.7-122.4 6.7-122.4" fill="#FFFFFF" p-id="4860"></path><path d="M599.3 952.2c-13.7 0-25.1-1.8-32.5-9.2-5.7-5.7-8.2-13.9-7.6-25.1 4-73 6.7-122.4 6.7-122.4 0.2-2.8 2.6-5 5.4-4.8 2.8 0.2 5 2.6 4.8 5.4 0 0-2.7 49.4-6.7 122.4-0.4 8.1 1.1 13.8 4.6 17.3 7.6 7.6 25.1 6.6 45.4 5.4 9.7-0.6 19.7-1.1 29.9-0.9 11.5 0.3 17.9-3.9 18.3-8.3 0.4-4.1-4.6-9.1-14.8-10.8-8.3-1.4-15.2-7.6-20.4-18.5-11.8-24.8-12.8-73.2-1.9-92.5 1.4-2.4 4.5-3.3 7-1.9 2.4 1.4 3.3 4.5 1.9 7-10.1 17.7-7.2 63.3 2.2 83 2.5 5.3 6.8 11.8 12.9 12.8 17.3 2.8 24.1 13 23.3 21.8-0.9 9.1-10.1 18.1-28.8 17.5-9.8-0.2-19.6 0.3-29.1 0.9-7.2 0.5-14.1 0.9-20.6 0.9z" fill="" p-id="4861"></path><path d="M337.3 254.5C366.4 164.9 359.1 78.6 508 76.9s119 142.7 148.8 160.9c29.9 18.3 78 76.3-28.2 122.8s-227.3 26.2-277.2 3.5c-104.1-47.3-14.1-109.6-14.1-109.6z" fill="#FFFFFF" p-id="4862"></path><path d="M486.2 395.5c-57.9 0-108.7-12-137.7-25.2-33.9-15.4-52.1-34.4-54-56.4-2.8-31.4 28.6-57.3 37-63.5 4.5-14 8.1-28 11.6-41.6 9.4-36.3 18.3-70.6 41.1-96 25.5-28.4 64.8-41.9 123.7-42.6 48.8-0.6 83.7 13.7 106.8 43.5 19.4 25.1 26.3 56.1 31.8 81 3.8 17.3 7.5 33.6 13.7 37.4 16 9.8 42.4 34.4 40.3 64.8-1.9 27.1-25.2 50.7-69.4 70-47.7 20.9-98.5 28.6-144.9 28.6z m-145-135.4c-0.6 0.4-35.6 25.2-33.1 52.6 1.5 16.8 17 32 46.1 45.2 33.5 15.2 81.3 22.2 115 23.6 39.4 1.7 98.6-1.7 156.7-27.1 38.6-16.9 59.8-37.1 61.2-58.5 1.6-23.9-20.5-44.1-33.9-52.3-11.2-6.8-15.1-24.2-19.9-46.1C622.5 149 607.8 82.6 508.1 83.7c-54.8 0.6-91 12.7-113.7 38.1-20.6 23-29.1 55.7-38.1 90.4-3.7 14.4-7.6 29.4-12.5 44.5-0.5 1.3-1.4 2.5-2.6 3.4z" fill="" p-id="4863"></path><path d="M412.7 232.9a24.9 14.2 90 1 0 28.4 0 24.9 14.2 90 1 0-28.4 0Z" fill="" p-id="4864"></path><path d="M562.7 232.9a24.9 14.2 90 1 0 28.4 0 24.9 14.2 90 1 0-28.4 0Z" fill="" p-id="4865"></path><path d="M506.7 347.6c-19.9 0-75-28.6-81.4-31.9l3.2-6c17.4 9.1 65.4 32.5 79.2 31.1 16.9-1.6 81.4-30.9 82-31.2l2.8 6.2c-2.7 1.2-66.1 30.1-84.2 31.8-0.5-0.1-1 0-1.6 0z" fill="" p-id="4866"></path></svg>
